<svg xmlns="http://www.w3.org/2000/svg" xmlns:xlink="http://www.w3.org/1999/xlink" width="328" height="164" viewBox="0 0 328 164">
    <defs>
        <linearGradient id="a" x1="50%" x2="50%" y1="0%" y2="100%">
            <stop offset="0%" stop-color="#F6FCF8"/>
            <stop offset="100%" stop-color="#E7F7ED"/>
        </linearGradient>
        <path id="b" d="M10 0h308c5.523 0 10 4.477 10 10v154H0V10C0 4.477 4.477 0 10 0z"/>
    </defs>
    <g fill="none" fill-rule="evenodd">
        <path fill="url(#a)" d="M10 0h308c5.523 0 10 4.477 10 10v154H0V10C0 4.477 4.477 0 10 0z"/>
        <g>
            <mask id="c" fill="#fff">
                <use xlink:href="#b"/>
            </mask>
            <g fill-rule="nonzero" mask="url(#c)">
                <path fill="#CCEFDB" d="M309.963 58.708v70.29h-35.64v-33.18h-13.517v38.403h-10.377l-8.998-9.217H228.24v15.055h-16.59V86.6H185.84v27.287l-10.753-11.058V90.455l-7.374-6.793V54.955h-9.217v25.421l-6.452 6.417v19.283l-9.67 9.711h-16.138v24.272h-25.976l-13.715-13.826H67.759l-14.276 14.748h-31.09V90.455L11.28 79.394-4.644 95.267v19.599H-24v65.133h361V32l-27.037 26.708zM6.981 98.13l7.536-.029 1.2 2.65-8.725.061-.01-2.682zm6.039 7.124l-.01-2.682 3.326-.013.535 2.652-3.851.043zm187.815 0l-.01-2.682 7.535-.029 1.2 2.65-8.725.061zM322.64 69.088H312.42v-6.743l10.172-.954.047 7.697zM155.347 127.42h-10.219v-6.742l10.172-.955.047 7.697zm174.28-31.296v-6.812l4.212-.92-.088 7.732h-4.125z" opacity=".696"/>
                <g transform="translate(110 50)">
                    <rect width="94" height="179" fill="#898D97" rx="6"/>
                    <path fill="#F7F7F7" d="M4 16h86v145H4z"/>
                    <path fill="#E8E8E8" d="M8 20h78v43.405H8zM8 67h55.908v3.816H8zM8 73h26.573v3.816H8z"/>
                    <path fill="#00B14F" d="M79.192 70.55a.25.25 0 1 1-.264-.425l1.88-1.175a.25.25 0 1 1 .265.425l-1.88 1.175zM78.928 71.875a.25.25 0 1 1 .264-.425l1.881 1.175a.25.25 0 1 1-.265.425l-1.88-1.175z"/>
                    <path fill="#00B14F" d="M82 70a1.5 1.5 0 1 1 0-3 1.5 1.5 0 0 1 0 3zm0-.5a1 1 0 1 0 0-2 1 1 0 0 0 0 2zM82 75a1.5 1.5 0 1 1 0-3 1.5 1.5 0 0 1 0 3zm0-.5a1 1 0 1 0 0-2 1 1 0 0 0 0 2zM78 72.5a1.5 1.5 0 1 1 0-3 1.5 1.5 0 0 1 0 3zm0-.5a1 1 0 1 0 0-2 1 1 0 0 0 0 2z"/>
                    <path fill="#E8E8E8" d="M8 85h78v43.405H8z"/>
                </g>
            </g>
        </g>
    </g>
</svg>
